# xmcd
#
# Track frame offsets:
#	150
#	12848
#	30620
#	45728
#	66295
#	79677
#	98082
#	114993
#	131548
#	146580
#	162152
#	179542
#	195237
#	203084
#	216767
#	240935
#	258280
#	273807
#	293307
#	320109
#	341528
#
# Disc length: 4804 seconds
#
# Revision: 1
# Processed by: cddbd v1.4PL0 Copyright (c) Steve Scherf et al.
# Submitted via: EasyCDDAExtractor 5.0.6
#
DISCID=1d12c215
DTITLE=Various Artist - Dan Takes Another 5
DYEAR=1900
DGENRE=
TTITLE0=Georgia Satellites - Saddle Up
TTITLE1=Dan Baird - Rocket in My Pocket
TTITLE2=Terry Anderson - Three Little Words
TTITLE3=The Dusters - Mexico
TTITLE4=The Bottle Rockets - Nancy Sinatra
TTITLE5=Fred Haring - Work In Progress
TTITLE6=Dan Baird - Lonely at the Top
TTITLE7=Blue Mountain - Death Is A Fisherman
TTITLE8=Johnny Law - Too Weak To Fight
TTITLE9=Will Hoge - She Don't Care
TTITLE10=Dan Baird - Whiskey Bent and Hell Bound
TTITLE11=Jason - Hardluck Boy
TTITLE12=Terry Anderson - Fat Lady In The Stands
TTITLE13=Dan Baird - Street Fighting Man
TTITLE14=The Harshed Mellows - U.S. Blues
TTITLE15=Michelle Malone And Drag The River - Battle Him Republican
TTITLE16=Georgia Satellites - That Woman
TTITLE17=Johnny Copeland with The Yayhoos- Tumblin' Dice 
TTITLE18=Ken Mc Mahan and Slumpy Boy - Hellbound Train
TTITLE19=The Yayhoos - California
TTITLE20=Tommy Womack - They All Come Back For More
EXTD=
EXTT0=
EXTT1=
EXTT2=
EXTT3=
EXTT4=
EXTT5=
EXTT6=
EXTT7=
EXTT8=
EXTT9=
EXTT10=
EXTT11=
EXTT12=
EXTT13=
EXTT14=
EXTT15=
EXTT16=
EXTT17=
EXTT18=
EXTT19=
EXTT20=
PLAYORDER=
